<svg xmlns="http://www.w3.org/2000/svg" viewBox="0 0 400 400" role="img" aria-label="Specimen"><defs>
  <pattern id="ht" width="7" height="7" patternUnits="userSpaceOnUse" patternTransform="rotate(45)">
    <rect width="7" height="7" fill="#bdbdbd"/><circle cx="3.5" cy="3.5" r="1.9" fill="#111"/>
  </pattern>
  <pattern id="htd" width="6" height="6" patternUnits="userSpaceOnUse" patternTransform="rotate(45)">
    <rect width="6" height="6" fill="#2a2a2a"/><circle cx="3" cy="3" r="1.3" fill="#8a8a8a"/>
  </pattern>
  <pattern id="htl" width="7" height="7" patternUnits="userSpaceOnUse" patternTransform="rotate(45)">
    <rect width="7" height="7" fill="#efefef"/><circle cx="3.5" cy="3.5" r="1.1" fill="#555"/>
  </pattern>
  <pattern id="hatch" width="8" height="8" patternUnits="userSpaceOnUse" patternTransform="rotate(-35)">
    <rect width="8" height="8" fill="#9a9a9a"/><rect width="3" height="8" fill="#3a3a3a"/>
  </pattern>
  <linearGradient id="metal" x1="0" x2="1">
    <stop offset="0" stop-color="#5a5a5a"/><stop offset=".35" stop-color="#f4f4f4"/><stop offset=".55" stop-color="#9c9c9c"/><stop offset="1" stop-color="#3c3c3c"/>
  </linearGradient>
  <linearGradient id="metalv" x1="0" y1="0" x2="0" y2="1">
    <stop offset="0" stop-color="#5a5a5a"/><stop offset=".35" stop-color="#f4f4f4"/><stop offset=".6" stop-color="#9c9c9c"/><stop offset="1" stop-color="#3c3c3c"/>
  </linearGradient>
  <radialGradient id="glow"><stop offset="0" stop-color="#fff"/><stop offset=".6" stop-color="#e8e8e8"/><stop offset="1" stop-color="#777"/></radialGradient>
</defs><rect x="0" y="0" width="400" height="400" fill="url(#htl)"/>
<rect x="128" y="50" width="144" height="300" rx="26" fill="url(#metalv)" stroke="#000" stroke-width="4" stroke-linejoin="round" stroke-linecap="round"/>
<circle cx="180" cy="100" r="3.4" fill="#111"/><circle cx="194" cy="100" r="3.4" fill="#111"/><circle cx="208" cy="100" r="3.4" fill="#111"/><circle cx="222" cy="100" r="3.4" fill="#111"/><circle cx="180" cy="114" r="3.4" fill="#111"/><circle cx="194" cy="114" r="3.4" fill="#111"/><circle cx="208" cy="114" r="3.4" fill="#111"/><circle cx="222" cy="114" r="3.4" fill="#111"/><circle cx="180" cy="128" r="3.4" fill="#111"/><circle cx="194" cy="128" r="3.4" fill="#111"/><circle cx="208" cy="128" r="3.4" fill="#111"/><circle cx="222" cy="128" r="3.4" fill="#111"/>
<circle cx="200" cy="250" r="54" fill="#1a1a1a" stroke="#000" stroke-width="4" stroke-linejoin="round" stroke-linecap="round"/>
<circle cx="200" cy="250" r="40" fill="url(#glow)" stroke="#000" stroke-width="3"/>
<circle cx="200" cy="250" r="47" fill="none" stroke="#fff" stroke-width="3"/></svg>